# xmcd
#
# Track frame offsets: 
#        150
#        11165
#        23715
#        39050
#        52912
#        64057
#        75662
#        94847
#        110867
#        128792
#
# Disc length: 1976 seconds
#
# Revision: 3
# Processed by: cddbd v1.5PL3 Copyright (c) Steve Scherf et al.
# Submitted via: ExactAudioCopy v0.95a3
#
DISCID=7707b60a
DTITLE=Patty Loveless - If My Heart Had Windows
DYEAR=1988
DGENRE=Country
TTITLE0=So Good To Be In Love
TTITLE1=Working Man's Hands
TTITLE2=You Saved Me
TTITLE3=If My Heart Had Windows
TTITLE4=A Little Bit In Love
TTITLE5=I Can't Get You Off Of My Mind
TTITLE6=Baby's Gone Blues
TTITLE7=A Little On The Lonely Side
TTITLE8=Fly Away
TTITLE9=Once In A Lifetime
EXTD=
EXTT0=
EXTT1=
EXTT2=
EXTT3=
EXTT4=
EXTT5=
EXTT6=
EXTT7=
EXTT8=
EXTT9=
PLAYORDER=
